<?xml version="1.0" standalone="no"?>
<!DOCTYPE svg PUBLIC "-//W3C//DTD SVG 1.1//EN" "http://www.w3.org/Graphics/SVG/1.1/DTD/svg11.dtd">
<svg version="1.1" xmlns="http://www.w3.org/2000/svg" viewBox="0 0 101 65.25" width="202" height="130.5"><!-- svg-source:excalidraw --><metadata></metadata><defs><style class="style-fonts">
      </style></defs><g stroke-linecap="round" transform="translate(10 10) rotate(0 39.5 1.25)"><path d="M50 0.5 C54.75 -0.7, 59.61 2.81, 69 1.5 M50 0.5 C56.04 -0.06, 63.63 1, 69 1.5 M69 1.5 C78.55 1.21, 79.4 1.58, 69 2.5 M69 1.5 C77.82 0.12, 79.26 3.95, 69 2.5 M69 2.5 C66.85 0.59, 60.82 1.63, 50 2 M69 2.5 C65.79 1.68, 61.72 1.29, 50 2 M50 2 C41.62 1.23, 40.97 1.93, 30 2 M50 2 C39.71 1.69, 40.46 3.24, 30 2 M30 2 C26.16 3.38, 21.49 0.55, 10 2.5 M30 2 C22.38 1.16, 15.52 1.49, 10 2.5 M10 2.5 C-1.88 2.03, -0.12 0.88, 10 1.5 M10 2.5 C-1.42 -0.06, -1.58 0.42, 10 1.5 M10 1.5 C15.81 1.06, 20.22 -0.25, 30 0.5 M10 1.5 C16.23 0.5, 22.97 0.46, 30 0.5 M30 0.5 C39.68 0.46, 40.94 -1.7, 50 0.5 M30 0.5 C39.61 2.14, 41.06 0.21, 50 0.5" stroke="#699eff" stroke-width="4" fill="none"></path></g><g stroke-opacity="0.6" fill-opacity="0.6" stroke-linecap="round" transform="translate(11 31.25) rotate(0 39.5 1.25)"><path d="M50 0.5 C55.65 1.45, 59.63 1.25, 69 1.5 M50 0.5 C54.87 0.66, 59.25 1.23, 69 1.5 M69 1.5 C78.6 2.24, 79.11 1.68, 69 2.5 M69 1.5 C78.26 1.83, 79.14 2.15, 69 2.5 M69 2.5 C62.47 2.91, 56.22 1.45, 50 2 M69 2.5 C64.44 2.06, 59.46 2.23, 50 2 M50 2 C40.51 1.94, 40.64 2.45, 30 2 M50 2 C41.01 2.33, 40.6 2.09, 30 2 M30 2 C24.82 2.13, 20.24 2.33, 10 2.5 M30 2 C22.62 2.68, 13.91 2.13, 10 2.5 M10 2.5 C0.78 2.86, 0.36 2.85, 10 1.5 M10 2.5 C0.57 3.14, 0.09 2.99, 10 1.5 M10 1.5 C15.31 0.7, 21.12 0.24, 30 0.5 M10 1.5 C15.15 0.9, 20.87 0.46, 30 0.5 M30 0.5 C39.81 -0.53, 39.1 -0.73, 50 0.5 M30 0.5 C40.21 -0.63, 40.69 0.66, 50 0.5" stroke="#699eff" stroke-width="4" fill="none"></path></g><g stroke-opacity="0.3" fill-opacity="0.3" stroke-linecap="round" transform="translate(12 52.75) rotate(0 39.5 1.25)"><path d="M50 0.5 C54.67 -0.49, 61.18 0.35, 69 1.5 M50 0.5 C53.98 0.86, 59.83 0.27, 69 1.5 M69 1.5 C77.42 3.83, 79.7 1.44, 69 2.5 M69 1.5 C78.14 3.6, 80.83 2.28, 69 2.5 M69 2.5 C65.26 3.62, 62.18 3.85, 50 2 M69 2.5 C62.28 1.79, 55.62 2.41, 50 2 M50 2 C39.03 1.49, 38.74 0.66, 30 2 M50 2 C38.4 1.61, 41.9 3.59, 30 2 M30 2 C20.98 3.51, 13.32 1.96, 10 2.5 M30 2 C23.23 2.13, 15.68 1.89, 10 2.5 M10 2.5 C0.62 0.09, -0.26 1.58, 10 1.5 M10 2.5 C1.05 0.94, -1.7 1.61, 10 1.5 M10 1.5 C18.59 2.87, 23.45 2.79, 30 0.5 M10 1.5 C16.08 1.7, 24.06 1.81, 30 0.5 M30 0.5 C38.53 -1.2, 38.21 0.37, 50 0.5 M30 0.5 C38.21 -2.28, 41.04 1.41, 50 0.5" stroke="#699eff" stroke-width="4" fill="none"></path></g></svg>